<?xml version="1.0" encoding="utf-8"?>
<!-- Generator: Adobe Illustrator 25.2.0, SVG Export Plug-In . SVG Version: 6.00 Build 0)  -->
<svg version="1.1" id="Capa_1" xmlns="http://www.w3.org/2000/svg" xmlns:xlink="http://www.w3.org/1999/xlink" x="0px" y="0px"
	 viewBox="0 0 24 24.5" style="enable-background:new 0 0 24 24.5;" xml:space="preserve">
<style type="text/css">
	.st0{fill:none;stroke:#000000;stroke-miterlimit:10;}
	.st1{display:none;}
	.st2{display:inline;}
	.st3{fill:#FFFFFF;stroke:#000000;stroke-width:7;stroke-miterlimit:10;}
	.st4{fill:none;stroke:#000000;stroke-width:6;stroke-miterlimit:10;}
	.st5{fill:none;stroke:#000000;stroke-width:6;stroke-linecap:round;stroke-miterlimit:10;}
</style>
<g id="Capa_1_1_">
	<g>
		<circle class="st0" cx="12" cy="12.2" r="11"/>
		<g>
			<ellipse class="st0" cx="7.8" cy="14.7" rx="3.6" ry="3.5"/>
			<ellipse class="st0" cx="16" cy="14.7" rx="3.6" ry="3.5"/>
			<path class="st0" d="M11.2,13.5c0,0,0.8-0.6,1.4,0"/>
			<path class="st0" d="M4.9,5.1C6.4,4,6.1,5.4,6,5.8c-0.4,2.2-1.6,8-1.6,8"/>
			<path class="st0" d="M17.4,5c1.2-1.1,1.1-0.1,1.2,0.5c0.2,2.3,1,8.9,1,8.9"/>
			<path class="st0" d="M11.4,13.7c0,0,0.2-0.4,0.6-0.4c0.4,0,0.6,0.3,0.6,0.3"/>
		</g>
	</g>
</g>
<g id="Capa_3" class="st1">
	<g class="st2">
		<circle class="st3" cx="425.3" cy="35.2" r="91.2"/>
		<g>
			<ellipse class="st4" cx="390.9" cy="55.4" rx="29.8" ry="29.2"/>
			<ellipse class="st4" cx="458.6" cy="55.4" rx="29.8" ry="29.2"/>
			<path class="st4" d="M419.1,45.8c0,0,6.8-4.6,11.3,0"/>
			<path class="st5" d="M366.7-23.9c12.5-9.6,9.4,2.5,8.8,5.4c-3.5,17.8-13.3,66-13.3,66"/>
			<path class="st5" d="M469.7-24.8c10.1-9.4,9.5-0.5,10.1,4.5c1.4,18.8,8.5,74.1,8.5,74.1"/>
			<path class="st5" d="M420.2,47.5c0,0,1.9-3.3,4.6-3.3c3.1,0,4.6,2.3,4.6,2.3"/>
		</g>
	</g>
</g>
</svg>
